<svg width="128" height="32" xmlns="http://www.w3.org/2000/svg"><g fill="none" fill-rule="evenodd"><path d="M10.173 31.645V15.022a1 1 0 0 0-1-1h-4.32a1 1 0 0 0-1 1v10.303A6.32 6.32 0 0 0 9.94 31.64l.232.004zm7.785-1V22.1c0-1.741 1.049-2.709 2.564-2.709 1.532 0 2.419 1.242 2.419 2.71v8.544a1 1 0 0 0 1 1h4.272a1 1 0 0 0 1-1v-9.674c0-3.418-1.532-7.32-6.176-7.32a6.344 6.344 0 0 0-5.062 2.564h-.049v-1.193a1 1 0 0 0-1-1h-4.24a1 1 0 0 0-1 1v16.623h5.272a1 1 0 0 0 1-1zm20.685 0V20.15a1 1 0 0 1 1-1h4.852a1 1 0 0 1 1 1v11.496h5.337a1 1 0 0 0 1-1V12.447a6.337 6.337 0 0 0-6.104-6.332l-.233-.004v6.911a1 1 0 0 1-1 1h-5.852V12.62c0-1.773.677-2.837 2.644-2.837.14 0 .327.01.529.026l.414.04.205.024.37.052c.11.018.204.035.272.051v-4.87c-.935-.322-2.177-.45-3.16-.45-5.128 0-7.514 3.401-7.514 7.884v1.483h-2.24a1 1 0 0 0-1 1v3.127a1 1 0 0 0 1 1h2.24v11.496a1 1 0 0 0 1 1h4.24a1 1 0 0 0 1-1zM59.343 32a6.325 6.325 0 0 0 5.063-2.548h.049v1.193a1 1 0 0 0 1 1h5.24V15.022a1 1 0 0 0-1-1h-4.273a1 1 0 0 0-1 1v8.545c0 1.742-1.048 2.71-2.563 2.71-1.532 0-2.419-1.242-2.419-2.71v-8.545a1 1 0 0 0-1-1h-4.272a1 1 0 0 0-1 1v9.674c0 3.402 1.596 7.304 6.176 7.304zm19.137-1.355v-8.577c0-1.71.92-2.677 2.531-2.677 1.548 0 2.29 1.29 2.29 2.645v8.61a1 1 0 0 0 1 1h4.256a1 1 0 0 0 1-1v-8.61c0-1.71.919-2.645 2.531-2.645 1.548 0 2.29 1.258 2.29 2.612v8.642a1 1 0 0 0 1 1h4.272a1 1 0 0 0 1-1v-9.674c0-3.418-1.354-7.32-6.143-7.32-2.596 0-4.434 1.064-5.966 2.757-.903-1.596-2.467-2.757-5.014-2.757-1.71 0-3.709.742-5.047 2.564h-.032v-1.193a1 1 0 0 0-1-1h-4.24a1 1 0 0 0-1 1v16.623h5.272a1 1 0 0 0 1-1zm32.409 1.29c1.209 0 2.192-.08 3.337-.5v-4.869l-.672.055a11.77 11.77 0 0 1-.972.042c-1.258 0-2.274-.468-2.274-2.048v-4.401a1 1 0 0 1 1-1h2.08a1 1 0 0 0 1-1v-4.192h-3.08a1 1 0 0 1-1-1V9.298a1 1 0 0 0-1-1h-4.127a1 1 0 0 0-1 1v3.724a1 1 0 0 1-1 1h-1.466a1 1 0 0 0-1 1v3.192a1 1 0 0 0 1 1h1.305a1 1 0 0 1 1 1v5.062c0 4.354 2.822 6.66 6.869 6.66zm10.712-6.99v-.555c0-3.234 1.82-4.42 4.326-4.48l.293-.001.27.01.392.03.302.03c.157.02.32.044.48.073l.016-6.078a5.709 5.709 0 0 0-.302-.047l-.303-.033-.273-.022-.211-.01h-.182l-.245.01-.277.023c-1.214.126-3.133.673-4.302 2.675h-.048v-1.548a1 1 0 0 0-1-1h-5.224v17.21a6.288 6.288 0 0 0 6.288-6.288z" fill="#000" fill-rule="nonzero"/><path d="m6.88 11.007-2.67.95a1 1 0 0 1-1.334-.97l.078-2.832L1.226 5.91a1 1 0 0 1 .51-1.569l2.717-.8 1.602-2.337a1 1 0 0 1 1.65 0l1.6 2.336 2.718.801a1 1 0 0 1 .51 1.569l-1.728 2.245.078 2.831a1 1 0 0 1-1.335.97l-2.669-.949z" fill="#EF3E3E"/></g></svg>